<?xml version="1.0"?>
<svg xmlns="http://www.w3.org/2000/svg" height="302.70062" viewBox="0 0 391.3923 302.70062" width="391.3923" fill="#2b3252"><path d="m138.6299 302.70063a6 6 0 0 1 -4.9-9.45l87.34-124.13a6 6 0 1 1 9.81 6.9l-87.34 124.13a6 6 0 0 1 -4.91 2.55zm84.24-51.88a6 6 0 0 1 -5-9.33l48.17-72.25a6 6 0 0 1 5-2.67h32.48a74.94 74.94 0 1 0 0-149.870001h-6.68l-85.55 121.580001a6 6 0 0 1 -9.81-6.91l87.34-124.1200006a6 6 0 0 1 4.91-2.55h9.79a86.94 86.94 0 1 1 0 173.8700006h-29.27l-46.38 69.58a6 6 0 0 1 -5 2.67zm29.66-110a6 6 0 0 1 -4.9-9.46l60.1-85.410001a6 6 0 0 1 6.17-2.42 49.2 49.2 0 0 1 -10.38 97.290001 6 6 0 0 1 0-12 37.19 37.19 0 0 0 11.61-72.520001l-57.69 82.000001a6 6 0 0 1 -4.91 2.53z" fill="#2b3252"/><path d="m179.8199 178.57063a6 6 0 0 1 -4.9-9.45l26.56-37.74a6 6 0 0 1 9.81 6.91l-26.56 37.73a6 6 0 0 1 -4.91 2.55z" fill="#2b3252"/><path d="m225.9699 178.57063a6 6 0 0 1 -4.9-9.45l26.56-37.74a6 6 0 0 1 9.81 6.91l-26.56 37.74a6 6 0 0 1 -4.91 2.54z" fill="#2b3252"/><path d="m86.7199 300.13063a86.94 86.94 0 0 1 -1.08-173.87l29.27-.37 45.5-70.150001a6 6 0 0 1 10.77 1.49l11 35.74 61.85-90.2999996a6 6 0 1 1 9.9 6.78l-67.22 98.1500006 41.86 135.45a6 6 0 0 1 -11.44 3.54l-39-126.35-9.88 14.43a6.003676 6.003676 0 0 1 -9.91-6.78l15.27-22.28-10.07-32.580001-40.31 62.080001a6 6 0 0 1 -5 2.74l-32.48.41a74.94 74.94 0 0 0 .93 149.87h1l6.68-.09 84-122.65a6 6 0 0 1 9.9 6.78l-85.76 125.21a6 6 0 0 1 -4.87 2.6l-9.8.13zm-8.59-38.6a6.11 6.11 0 0 1 -1.2-.12 49.47 49.47 0 0 1 -39.41-47.6 49.24 49.24 0 0 1 48.61-49.81h.07a6.0001333 6.0001333 0 0 1 .08 12 37.23 37.23 0 0 0 -36.72 37.66 37.41 37.41 0 0 0 26 35l56.65-82.7a6 6 0 0 1 9.9 6.78l-59 86.17a6 6 0 0 1 -4.98 2.62z" fill="#2b3252"/><path d="m183.3199 174.77063a6 6 0 0 1 -4.95-9.39l26.08-38.07a6 6 0 0 1 9.9 6.78l-26.08 38.07a6 6 0 0 1 -4.95 2.61z" fill="#2b3252"/><path d="m137.1299 175.38063a6 6 0 0 1 -4.94-9.39l26.07-38.08a6.003676 6.003676 0 0 1 9.91 6.78l-26.04 38.06a6 6 0 0 1 -5 2.63z" fill="#2b3252"/></svg>
